PathFileType	4	(X/Y/Z)	C:\Users\dbl\Desktop\LZH\BX\Trimmed_bx_n_10_901.trc
DataRate	CameraRate	NumFrames	NumMarkers	Units	OrigDataRate	OrigDataStartFrame	OrigNumFrames
50.00	50.00	      5	43	mm	50.00	1329	      1518
Frame#	Time	Top.Head			R.Acromium			L.Acromium			Sternum			R.ASIS			L.ASIS			V.Sacral			R.Thigh.Upper			R.Thigh.Front			R.Thigh.Rear			R.Knee.Lat			R.Knee.Med			R.Shank.Upper			R.Shank.Front			R.Shank.Rear			R.Ankle.Lat			R.Midfoot.Lat			R.Toe.Lat			R.Toe.Tip			R.Toe.Med			R.Ankle.Med			R.Midfoot.Sup			R.Heel			L.Thigh.Upper			L.Thigh.Front			L.Thigh.Rear			L.Knee.Lat			L.Knee.Med			L.Shank.Upper			L.Shank.Front			L.Shank.Rear			L.Ankle.Lat			L.Midfoot.Lat			L.Toe.Lat			L.Toe.Tip			L.Toe.Med			L.Ankle.Med			L.Midfoot.Sup			L.Heel			origin1 front left			origin2 front right			origin 3 back right			origin 4 back leftt			
		X1	Y1	Z1	X2	Y2	Z2	X3	Y3	Z3	X4	Y4	Z4	X5	Y5	Z5	X6	Y6	Z6	X7	Y7	Z7	X8	Y8	Z8	X9	Y9	Z9	X10	Y10	Z10	X11	Y11	Z11	X12	Y12	Z12	X13	Y13	Z13	X14	Y14	Z14	X15	Y15	Z15	X16	Y16	Z16	X17	Y17	Z17	X18	Y18	Z18	X19	Y19	Z19	X20	Y20	Z20	X21	Y21	Z21	X22	Y22	Z22	X23	Y23	Z23	X24	Y24	Z24	X25	Y25	Z25	X26	Y26	Z26	X27	Y27	Z27	X28	Y28	Z28	X29	Y29	Z29	X30	Y30	Z30	X31	Y31	Z31	X32	Y32	Z32	X33	Y33	Z33	X34	Y34	Z34	X35	Y35	Z35	X36	Y36	Z36	X37	Y37	Z37	X38	Y38	Z38	X39	Y39	Z39	X40	Y40	Z40	X41	Y41	Z41	X42	Y42	Z42	X43	Y43	Z43	

1329	26.560	-244.41730	221.36427	1583.85632	-422.12604	61.51536	1360.95825	-393.83670	394.46631	1357.53760	-507.71317	235.58119	1173.24194	-700.79565	126.47232	1003.96704	-675.73950	354.51801	1007.38580	-879.86975	254.88890	1074.20337	-771.23657	80.46014	822.90784	-676.77094	139.57431	807.58044	-770.64929	96.81175	707.94067	-758.20966	118.17548	595.94873	-727.97345	224.98387	557.29254	-772.31268	118.01877	527.59814	-692.97058	168.13336	528.25037	-768.91492	109.71461	475.01123	-694.67090	142.28809	209.43065	-608.85199	87.75304	162.15782	-559.96027	69.39970	160.42793	-481.19159	119.46569	156.08597	-531.36328	165.79980	165.41586	-649.91473	220.09880	225.82462	-598.18115	198.25900	176.14412	-725.65704	209.18430	167.64894	-756.68268	441.63049	845.73053	-669.04102	387.07877	815.35266	-756.09802	432.12152	729.36377	-744.70801	411.48520	595.36676	-716.09039	309.40326	562.92236	-750.49664	414.47668	548.98700	-689.43433	357.88864	535.16193	-788.29407	419.09033	476.44077	-677.67645	416.45905	213.35806	-572.85284	459.11664	163.20839	-533.51764	467.96872	156.23000	-472.17969	413.15665	163.55693	-519.95789	376.70370	177.17882	-646.88507	324.91483	211.00426	-591.44775	340.31396	172.88342	-728.58716	347.14941	161.20204	-443.88608	448.73322	146.41312	-450.33441	75.05303	143.00896	-806.29364	82.46584	142.21053	-798.87665	457.46753	144.91428	
1330	26.580	-232.64728	220.84602	1563.83521	-415.31375	62.33688	1346.30872	-387.55255	394.33029	1342.55444	-508.53006	235.50174	1163.45715	-705.38141	126.83370	1001.99158	-680.96991	355.03165	1005.06421	-884.03503	254.55843	1074.28784	-775.55042	80.25044	822.10828	-681.28375	139.92776	807.02301	-774.16760	96.51627	707.10065	-761.02264	117.97711	595.29315	-730.94580	224.57434	556.78186	-774.56555	117.68571	526.98572	-695.48041	168.06404	528.08008	-770.93933	109.39168	474.35199	-694.90387	141.95659	209.38858	-608.87439	87.72802	162.07893	-559.93365	69.30773	160.38670	-481.27383	119.63255	156.16595	-531.38245	165.86212	165.39748	-650.38562	219.86581	225.97362	-598.44318	197.98096	176.28439	-725.85089	208.90999	167.57330	-762.13208	441.95892	844.73364	-674.21271	387.40067	814.74420	-760.76611	432.50629	728.28003	-748.16980	411.55099	594.53174	-719.13647	309.43851	562.28717	-753.66309	414.45676	548.24884	-692.32996	357.86572	534.75287	-790.97571	418.94354	475.38904	-677.99237	416.59885	213.35405	-573.10052	459.16733	162.93144	-533.53888	467.96677	156.23082	-472.29138	413.08643	163.60201	-520.07886	376.83133	177.19934	-647.13702	325.12585	211.03516	-591.52899	340.45731	172.91216	-728.52539	347.11502	161.15538	-443.87546	448.74313	146.44179	-450.32565	75.08925	142.96544	-806.25299	82.45976	142.23329	-798.89734	457.44308	144.91635	
1331	26.600	-221.90146	220.40984	1543.97070	-408.88641	63.25544	1331.57239	-381.81744	394.19177	1327.48108	-509.25735	235.41869	1153.90100	-709.76660	127.09348	1000.03082	-685.81946	355.63199	1002.79810	-887.95667	254.25365	1074.36145	-779.63617	80.07314	821.31012	-685.57672	140.24657	806.52124	-777.47882	96.21919	706.28143	-763.66254	117.77119	594.64795	-733.69226	224.26283	556.00940	-776.73492	117.35156	526.29578	-697.89929	168.04318	527.84033	-772.83307	109.03873	473.72464	-695.08826	141.61192	209.37906	-608.88293	87.71246	162.03293	-559.89453	69.21915	160.36633	-481.35065	119.80010	156.25581	-531.41211	165.91881	165.38284	-650.82849	219.59151	226.17096	-598.69348	197.69310	176.44865	-726.00256	208.64865	167.52817	-767.27667	442.22116	843.76129	-679.12830	387.65805	814.10468	-765.20825	432.88962	727.23816	-751.46844	411.58881	593.69611	-722.03058	309.53250	561.64514	-756.67102	414.43643	547.54279	-695.10840	357.82657	534.30701	-793.53766	418.83749	474.37869	-678.27234	416.73480	213.34282	-573.36102	459.24341	162.65279	-533.56921	467.96692	156.22659	-472.40787	413.02515	163.63869	-520.20032	376.96109	177.22755	-647.38831	325.33582	211.08528	-591.60931	340.66064	172.95065	-728.45874	347.09280	161.08423	-443.87109	448.73608	146.50023	-450.32358	75.11770	142.95993	-806.22900	82.47544	142.21213	-798.91968	457.43970	144.91859	
1332	26.620	-212.23145	220.13847	1524.42834	-402.78864	64.19719	1316.81982	-376.62894	394.00702	1312.35278	-509.90018	235.34184	1144.56213	-714.03595	127.21642	998.09479	-690.27527	356.30026	1000.57990	-891.65729	254.04266	1074.43469	-783.61090	79.91715	820.49744	-689.72644	140.54411	806.04779	-780.68750	95.90540	705.46564	-766.18268	117.57512	594.01807	-736.19788	224.08260	555.02905	-778.89258	117.04124	525.51056	-700.23682	168.04495	527.55774	-774.63293	108.66772	473.12112	-695.25488	141.26663	209.37791	-608.87561	87.69994	162.01758	-559.85889	69.14151	160.35567	-481.43860	119.95866	156.36665	-531.45581	165.96014	165.38087	-651.26172	219.27916	226.39140	-598.89233	197.44592	176.64711	-726.10437	208.40430	167.50285	-772.04132	442.41278	842.83447	-683.75073	387.79605	813.45154	-769.32416	433.28079	726.27234	-754.55389	411.62909	592.87872	-724.77844	309.68658	561.02222	-759.46381	414.44769	546.87268	-697.75970	357.78680	533.82404	-795.91858	418.82315	473.42465	-678.50452	416.83093	213.26622	-573.53955	459.35431	162.45836	-533.60956	467.96790	156.21059	-472.51370	412.97501	163.67026	-520.30927	377.08002	177.25998	-647.61383	325.54239	211.15291	-591.69000	340.91388	173.02667	-728.41272	347.08939	160.99553	-443.88394	448.70364	146.58180	-450.33209	75.13980	142.98361	-806.23212	82.52082	142.15485	-798.93524	457.45581	144.92140	
1333	26.640	-203.65906	220.09561	1505.33130	-396.97345	65.10420	1302.10095	-371.95062	393.74414	1297.21899	-510.46732	235.27518	1135.42822	-718.25720	127.21761	996.19678	-694.39307	356.95020	998.36273	-895.14587	253.95569	1074.50720	-787.57104	79.75583	819.66144	-693.79199	140.80737	805.57684	-783.88062	95.55907	704.62732	-768.63641	117.39626	593.40216	-738.49231	224.04051	553.97784	-781.07416	116.77103	524.64709	-702.49841	168.04617	527.25055	-776.37238	108.30299	472.51813	-695.43781	140.93307	209.35788	-608.85626	87.68909	162.02377	-559.83405	69.07944	160.34639	-481.54694	120.10217	156.50105	-531.51385	165.98146	165.39372	-651.68958	218.95972	226.59389	-599.02502	197.27202	176.86629	-726.16351	208.17833	167.47684	-776.40466	442.55118	841.97223	-688.05145	387.78717	812.81580	-773.05432	433.67929	725.39935	-757.39935	411.71857	592.10571	-727.39813	309.88223	560.45288	-762.01752	414.54132	546.24640	-700.28143	357.76511	533.31323	-798.08813	418.92130	472.52887	-678.69672	416.84924	213.07298	-573.57745	459.49304	162.39471	-533.66040	467.96448	156.17436	-472.59946	412.93665	163.69714	-520.40112	377.18256	177.29329	-647.78479	325.74283	211.22748	-591.77191	341.19101	173.16780	-728.40015	347.11331	160.89368	-443.92346	448.64377	146.67410	-450.34799	75.15747	143.02122	-806.26599	82.59486	142.07938	-798.93683	457.47690	144.92053	
